<svg width="128" height="128" viewBox="0 0 128 128" fill="none" xmlns="http://www.w3.org/2000/svg">
  <!-- Background -->
  <rect width="128" height="128" rx="24" fill="url(#gradient)"/>
  
  <!-- Kanban columns -->
  <g opacity="0.9">
    <!-- Column 1 -->
    <rect x="16" y="20" width="28" height="88" rx="4" fill="white" opacity="0.2"/>
    <rect x="18" y="24" width="24" height="20" rx="2" fill="white" opacity="0.6"/>
    <rect x="18" y="48" width="24" height="20" rx="2" fill="white" opacity="0.4"/>
    
    <!-- Column 2 -->
    <rect x="50" y="20" width="28" height="88" rx="4" fill="white" opacity="0.2"/>
    <rect x="52" y="24" width="24" height="20" rx="2" fill="white" opacity="0.6"/>
    <rect x="52" y="48" width="24" height="20" rx="2" fill="white" opacity="0.6"/>
    <rect x="52" y="72" width="24" height="20" rx="2" fill="white" opacity="0.4"/>
    
    <!-- Column 3 -->
    <rect x="84" y="20" width="28" height="88" rx="4" fill="white" opacity="0.2"/>
    <rect x="86" y="24" width="24" height="20" rx="2" fill="white" opacity="0.6"/>
    <rect x="86" y="48" width="24" height="20" rx="2" fill="white" opacity="0.6"/>
  </g>
  
  <!-- AI sparkle icon -->
  <circle cx="100" cy="28" r="8" fill="#6366F1" opacity="0.9"/>
  <path d="M96 28 L100 24 L104 28 L100 32 Z" fill="white"/>
  
  <!-- Gradient definition -->
  <defs>
    <linearGradient id="gradient" x1="0" y1="0" x2="128" y2="128" gradientUnits="userSpaceOnUse">
      <stop stop-color="#6366F1"/>
      <stop offset="1" stop-color="#8B5CF6"/>
    </linearGradient>
  </defs>
</svg>

